<?xml version="1.0" encoding="UTF-8" standalone="no"?>
<svg
   xmlns:dc="http://purl.org/dc/elements/1.1/"
   xmlns:cc="http://creativecommons.org/ns#"
   xmlns:rdf="http://www.w3.org/1999/02/22-rdf-syntax-ns#"
   xmlns:svg="http://www.w3.org/2000/svg"
   xmlns="http://www.w3.org/2000/svg"
   xmlns:sodipodi="http://sodipodi.sourceforge.net/DTD/sodipodi-0.dtd"
   xmlns:inkscape="http://www.inkscape.org/namespaces/inkscape"
   width="16"
   height="16"
   version="1.1"
   viewBox="0 0 16 16"
   id="svg6"
   sodipodi:docname="viewport_container.svg"
   inkscape:version="0.92.3 (2405546, 2018-03-11)">
  <metadata
     id="metadata12">
    <rdf:RDF>
      <cc:Work
         rdf:about="">
        <dc:format>image/svg+xml</dc:format>
        <dc:type
           rdf:resource="http://purl.org/dc/dcmitype/StillImage" />
      </cc:Work>
    </rdf:RDF>
  </metadata>
  <defs
     id="defs10" />
  <sodipodi:namedview
     pagecolor="#ffffff"
     bordercolor="#666666"
     borderopacity="1"
     objecttolerance="10"
     gridtolerance="10"
     guidetolerance="10"
     inkscape:pageopacity="0"
     inkscape:pageshadow="2"
     inkscape:window-width="1366"
     inkscape:window-height="715"
     id="namedview8"
     showgrid="false"
     inkscape:zoom="20.85965"
     inkscape:cx="-1.2082434"
     inkscape:cy="10.033402"
     inkscape:window-x="0"
     inkscape:window-y="0"
     inkscape:window-maximized="1"
     inkscape:current-layer="svg6" />
  <path
     style="fill:#a5b7f3;fill-opacity:1"
     inkscape:connector-curvature="0"
     id="path2"
     d="M 3,1 C 1.8954,1 1,1.89543 1,3 v 10 c 0,1.1046 0.89543,2 2,2 h 10 c 1.1046,0 2,-0.89543 2,-2 V 3 C 15,1.8954 14.10457,1 13,1 Z M 3,3 H 13 V 13 H 3 Z M 6,4 C 5.4696,4.0001 4.9609,4.21084 4.5859,4.58594 4.21081,4.96094 4.00004,5.4696 3.99996,6.00004 v 4 c 8e-5,0.5304 0.21085,1.0391 0.58594,1.4141 0.37501,0.3751 0.88366,0.58584 1.4141,0.58594 h 4 c 1.1046,0 2,-0.8954 2,-2 v -4 c 0,-1.1046 -0.89543,-2 -2,-2 z m 0,1 h 4 c 0.55228,0 0.99999,0.4477 1,1 v 4 c -10e-6,0.5523 -0.44772,1 -1,1 H 6 C 5.44772,11 5.00001,10.5523 5,10 V 6 C 5.00001,5.4477 5.44772,5 6,5 Z" />
</svg>
